<?xml version="1.0" standalone="no"?>
<!DOCTYPE svg PUBLIC "-//W3C//DTD SVG 20010904//EN"
 "http://www.w3.org/TR/2001/REC-SVG-20010904/DTD/svg10.dtd">
<svg version="1.0" xmlns="http://www.w3.org/2000/svg"
 width="500.000000pt" height="500.000000pt" viewBox="0 0 500.000000 500.000000"
 preserveAspectRatio="xMidYMid meet">

<g transform="translate(0.000000,500.000000) scale(0.100000,-0.100000)"
fill="#ffffff" stroke="none">
<path d="M2393 4862 c-70 -25 -103 -54 -545 -489 -930 -915 -1375 -1350 -1533
-1502 -93 -90 -175 -173 -182 -185 -20 -35 -26 -110 -12 -155 15 -51 67 -113
113 -135 52 -25 137 -21 196 9 36 18 229 203 751 717 1198 1183 1241 1225
1287 1239 22 6 53 8 68 5 17 -5 84 -62 169 -144 77 -76 480 -470 895 -877 942
-924 951 -932 994 -950 91 -38 222 -1 274 77 34 52 43 151 18 207 -12 24 -135
151 -363 372 -190 183 -352 348 -362 364 -14 27 -17 94 -21 585 -6 613 -1 570
-69 643 -58 64 -88 72 -291 75 -115 3 -205 0 -236 -8 -111 -24 -181 -98 -209
-217 -10 -41 -21 -64 -42 -80 -33 -27 -105 -40 -138 -25 -13 6 -121 105 -240
219 -119 114 -238 221 -265 236 -67 39 -180 47 -257 19z"/>
<path d="M2437 4011 c-16 -10 -247 -236 -515 -502 -268 -266 -639 -634 -824
-816 -207 -204 -346 -349 -360 -375 l-23 -43 0 -965 0 -965 22 -47 c27 -59 96
-134 148 -160 47 -25 200 -36 498 -37 l187 -1 0 1233 c0 1126 1 1238 17 1283
14 42 41 72 192 219 97 94 273 266 393 383 221 216 267 251 335 252 71 0 85
-10 313 -234 91 -89 256 -249 368 -356 114 -108 215 -214 230 -240 l27 -45 2
-1245 2 -1245 293 0 c253 1 300 3 345 19 77 26 134 74 174 147 l34 64 3 958
c1 616 -1 972 -8 995 -5 20 -29 60 -52 88 -55 65 -1632 1613 -1667 1636 -34
23 -99 23 -134 -1z"/>
<path d="M2390 2890 c-144 -18 -282 -68 -398 -143 -89 -58 -200 -154 -218
-188 -41 -80 15 -178 102 -179 33 0 86 32 179 111 138 116 291 165 489 157
182 -8 305 -58 454 -187 102 -88 124 -95 189 -64 64 30 90 102 58 163 -18 36
-154 147 -244 200 -177 105 -415 155 -611 130z"/>
<path d="M2350 2367 c-36 -12 -86 -34 -111 -49 -61 -36 -146 -113 -165 -151
-43 -82 42 -193 129 -172 14 4 54 31 88 61 82 71 152 98 239 91 79 -5 131 -30
205 -97 68 -61 90 -68 148 -42 112 50 96 158 -36 258 -123 92 -212 124 -347
124 -61 0 -103 -7 -150 -23z"/>
<path d="M1982 1631 c-70 -12 -126 -65 -142 -137 -5 -21 -10 -344 -10 -717 l0
-677 675 2 676 3 -1 698 c0 663 -1 700 -19 735 -23 46 -46 67 -94 87 -31 13
-107 15 -539 14 -277 -1 -522 -5 -546 -8z m933 -645 c53 -32 80 -87 73 -150
-7 -61 -31 -94 -85 -118 -104 -46 -213 24 -213 137 0 123 120 192 225 131z"/>
</g>
</svg>
