<?xml version="1.0" standalone="no"?>
<!DOCTYPE svg PUBLIC "-//W3C//DTD SVG 20010904//EN"
 "http://www.w3.org/TR/2001/REC-SVG-20010904/DTD/svg10.dtd">
<svg version="1.0" xmlns="http://www.w3.org/2000/svg"
 width="1024.000000pt" height="1024.000000pt" viewBox="0 0 1024.000000 1024.000000"
 preserveAspectRatio="xMidYMid meet">

<g transform="translate(0.000000,1024.000000) scale(0.100000,-0.100000)"
fill="#ffffff" stroke="none">
<path d="M4960 8083 c-25 -8 -52 -20 -61 -27 -19 -13 -1826 -1773 -2081 -2026
-149 -148 -178 -181 -183 -212 -9 -50 0 -82 34 -121 27 -29 34 -32 88 -32 73
1 63 -6 292 217 97 94 442 431 766 748 1072 1046 1190 1158 1228 1165 22 4 44
2 60 -7 26 -13 251 -228 867 -827 196 -191 448 -434 560 -541 259 -246 424
-405 620 -597 130 -127 161 -152 193 -158 82 -16 154 30 164 104 10 73 -13
104 -230 309 -111 105 -226 215 -255 245 l-53 54 1 776 c0 836 1 828 -51 854
-15 8 -88 14 -204 16 -108 2 -196 9 -220 17 -72 23 -164 -19 -202 -93 -22 -44
-21 -117 3 -158 49 -84 144 -113 234 -71 26 12 71 22 108 24 l62 3 0 -559 0
-559 -67 64 c-38 35 -221 212 -408 394 -1012 984 -1008 981 -1060 998 -60 21
-146 21 -205 0z"/>
<path d="M4996 7219 c-120 -19 -231 -104 -285 -219 -23 -49 -26 -67 -26 -165
0 -106 1 -112 34 -173 43 -78 126 -155 198 -182 80 -30 228 -28 305 4 109 45
184 127 223 245 22 68 15 190 -14 257 -76 172 -247 264 -435 233z m111 -250
c71 -27 112 -99 94 -167 -14 -49 -45 -78 -102 -93 -41 -11 -50 -10 -85 8 -108
55 -110 192 -4 245 41 21 58 22 97 7z"/>
<path d="M4840 6075 c-324 -51 -626 -241 -844 -533 -174 -231 -256 -491 -256
-810 0 -128 3 -151 20 -179 27 -45 73 -66 124 -58 49 7 67 19 95 65 18 31 21
50 21 160 0 230 59 438 172 611 106 163 262 302 437 390 166 83 399 123 576
99 193 -26 321 -78 471 -190 115 -86 167 -95 230 -37 28 26 37 42 41 78 9 79
-28 124 -185 227 -137 89 -299 151 -476 182 -81 14 -323 11 -426 -5z"/>
<path d="M3015 5546 c-16 -7 -41 -26 -55 -41 -23 -24 -25 -36 -28 -126 l-4
-99 -286 0 c-158 -1 -307 -5 -332 -9 -83 -17 -119 -94 -84 -179 36 -86 27 -85
482 -83 433 2 441 3 475 60 14 25 17 57 17 211 0 195 -6 222 -53 253 -35 23
-97 29 -132 13z"/>
<path d="M7062 5553 c-13 -3 -38 -20 -57 -39 l-35 -35 0 -198 c0 -188 1 -200
22 -226 40 -51 50 -52 480 -46 l398 6 36 36 c45 45 55 99 28 154 -35 74 -40
75 -386 75 l-308 0 0 94 c0 88 -2 97 -27 127 -41 48 -87 64 -151 52z"/>
<path d="M4995 5250 c-140 -30 -228 -97 -287 -217 -30 -63 -33 -75 -33 -163 1
-75 6 -107 24 -152 31 -81 106 -159 189 -200 62 -31 74 -33 167 -33 128 0 202
26 281 97 206 189 154 520 -99 639 -69 32 -173 44 -242 29z m118 -254 c41 -17
83 -66 92 -106 15 -66 -39 -142 -110 -156 -51 -9 -84 3 -127 45 -33 33 -38 45
-38 83 0 55 30 103 80 129 41 23 60 23 103 5z"/>
<path d="M6156 5169 c-47 -40 -52 -77 -29 -186 12 -61 18 -128 17 -218 0 -112
-4 -143 -28 -225 -37 -125 -42 -179 -21 -219 25 -49 71 -73 128 -68 87 7 120
61 167 272 56 246 20 573 -71 650 -46 38 -116 36 -163 -6z"/>
<path d="M2377 4656 c-59 -16 -123 -75 -137 -126 -32 -114 13 -212 119 -256
52 -22 102 -17 167 16 59 30 60 30 232 30 l172 0 0 -640 0 -640 -170 0 c-185
0 -209 -5 -249 -56 -32 -40 -36 -85 -13 -137 39 -88 -46 -82 1002 -78 871 3
927 2 941 -15 22 -27 90 -54 137 -54 55 0 99 19 139 61 39 41 53 77 53 132 -1
147 -155 236 -290 167 -38 -19 -61 -20 -660 -20 l-620 0 0 726 c0 666 -1 728
-17 755 -33 55 -55 59 -341 59 l-260 0 -15 24 c-32 48 -117 72 -190 52z"/>
<path d="M7055 4656 c-17 -7 -43 -28 -58 -45 l-27 -33 0 -172 c0 -164 1 -175
23 -207 31 -46 62 -61 120 -56 52 5 95 30 114 68 9 16 13 80 13 200 0 164 -1
178 -21 203 -41 53 -103 69 -164 42z"/>
<path d="M4349 4540 c-26 -13 -42 -32 -53 -62 -33 -82 -1 -152 126 -274 207
-199 462 -280 766 -245 214 25 384 111 534 268 77 81 118 148 118 192 0 101
-123 175 -202 123 -14 -9 -47 -45 -72 -79 -114 -156 -285 -239 -496 -242 -217
-4 -404 88 -534 262 -55 75 -118 94 -187 57z"/>
<path d="M5930 4063 c-14 -9 -56 -46 -95 -82 -133 -125 -303 -220 -480 -268
-91 -25 -116 -27 -280 -27 -163 0 -189 3 -280 27 -62 16 -145 49 -220 87 -128
65 -170 73 -225 45 -39 -20 -60 -63 -60 -121 0 -42 4 -51 40 -85 82 -78 310
-173 505 -210 101 -20 366 -17 485 5 176 32 347 99 493 192 37 24 70 44 72 44
3 0 5 -297 5 -660 l0 -660 -1345 0 -1345 0 0 46 c0 40 -5 51 -39 85 -35 35
-44 39 -90 39 -46 0 -56 -4 -92 -37 -33 -32 -41 -47 -49 -95 -23 -149 71 -271
230 -298 46 -8 614 -10 1960 -8 l1895 3 55 26 c106 49 165 125 177 227 11 99
-54 182 -142 182 -72 0 -135 -62 -135 -132 l0 -38 -410 0 -410 0 -2 823 c-3
804 -3 823 -23 849 -11 14 -32 33 -47 42 -35 21 -117 21 -148 -1z"/>
<path d="M7555 4021 c-39 -10 -74 -28 -102 -54 -21 -18 -37 -20 -170 -22 -270
-4 -251 -2 -284 -34 l-29 -29 0 -434 c0 -417 1 -434 20 -466 39 -64 131 -75
199 -24 50 36 51 45 51 395 l0 327 101 0 c85 0 105 -3 129 -20 62 -44 171 -42
243 5 54 37 92 119 83 183 -16 115 -133 200 -241 173z"/>
<path d="M5298 3057 c-109 -66 -128 -201 -42 -297 42 -47 89 -64 156 -58 91 9
162 78 174 171 9 65 -28 141 -88 180 -56 36 -144 38 -200 4z"/>
</g>
</svg>
